<mxfile host="Electron" modified="2024-07-09T07:47:23.738Z" agent="Mozilla/5.0 (Windows NT 10.0; Win64; x64) AppleWebKit/537.36 (KHTML, like Gecko) draw.io/24.6.4 Chrome/124.0.6367.207 Electron/30.0.6 Safari/537.36" etag="e5X0LkOlkCqy3dx7hfG2" version="24.6.4" type="device">
  <diagram name="PÃ¡gina-1" id="PzbJxcbnlzqedljldhFs">
    <mxGraphModel dx="1434" dy="836" grid="1" gridSize="10" guides="1" tooltips="1" connect="1" arrows="1" fold="1" page="1" pageScale="1" pageWidth="827" pageHeight="1169" math="0" shadow="0">
      <root>
        <mxCell id="0" />
        <mxCell id="1" parent="0" />
        <mxCell id="6DrEUlmGnA6X9Aar4sWL-1" value="AWS Cloud" style="points=[[0,0],[0.25,0],[0.5,0],[0.75,0],[1,0],[1,0.25],[1,0.5],[1,0.75],[1,1],[0.75,1],[0.5,1],[0.25,1],[0,1],[0,0.75],[0,0.5],[0,0.25]];outlineConnect=0;gradientColor=none;html=1;whiteSpace=wrap;fontSize=12;fontStyle=0;container=1;pointerEvents=0;collapsible=0;recursiveResize=0;shape=mxgraph.aws4.group;grIcon=mxgraph.aws4.group_aws_cloud_alt;strokeColor=#232F3E;fillColor=none;verticalAlign=top;align=left;spacingLeft=30;fontColor=#232F3E;dashed=0;" vertex="1" parent="1">
          <mxGeometry x="354" y="175" width="440" height="400" as="geometry" />
        </mxCell>
        <mxCell id="6DrEUlmGnA6X9Aar4sWL-4" value="Region" style="points=[[0,0],[0.25,0],[0.5,0],[0.75,0],[1,0],[1,0.25],[1,0.5],[1,0.75],[1,1],[0.75,1],[0.5,1],[0.25,1],[0,1],[0,0.75],[0,0.5],[0,0.25]];outlineConnect=0;gradientColor=none;html=1;whiteSpace=wrap;fontSize=12;fontStyle=0;container=1;pointerEvents=0;collapsible=0;recursiveResize=0;shape=mxgraph.aws4.group;grIcon=mxgraph.aws4.group_region;strokeColor=#00A4A6;fillColor=none;verticalAlign=top;align=left;spacingLeft=30;fontColor=#147EBA;dashed=1;" vertex="1" parent="6DrEUlmGnA6X9Aar4sWL-1">
          <mxGeometry x="146" y="65" width="250" height="270" as="geometry" />
        </mxCell>
        <mxCell id="6DrEUlmGnA6X9Aar4sWL-3" value="" style="sketch=0;points=[[0,0,0],[0.25,0,0],[0.5,0,0],[0.75,0,0],[1,0,0],[0,1,0],[0.25,1,0],[0.5,1,0],[0.75,1,0],[1,1,0],[0,0.25,0],[0,0.5,0],[0,0.75,0],[1,0.25,0],[1,0.5,0],[1,0.75,0]];outlineConnect=0;fontColor=#232F3E;fillColor=#7AA116;strokeColor=#ffffff;dashed=0;verticalLabelPosition=bottom;verticalAlign=top;align=center;html=1;fontSize=12;fontStyle=0;aspect=fixed;shape=mxgraph.aws4.resourceIcon;resIcon=mxgraph.aws4.s3;" vertex="1" parent="6DrEUlmGnA6X9Aar4sWL-4">
          <mxGeometry x="80" y="65" width="95" height="95" as="geometry" />
        </mxCell>
        <mxCell id="6DrEUlmGnA6X9Aar4sWL-9" value="S3 Bucket" style="text;html=1;align=center;verticalAlign=middle;whiteSpace=wrap;rounded=0;" vertex="1" parent="6DrEUlmGnA6X9Aar4sWL-4">
          <mxGeometry x="73" y="35" width="60" height="30" as="geometry" />
        </mxCell>
        <mxCell id="6DrEUlmGnA6X9Aar4sWL-13" value="" style="image;aspect=fixed;html=1;points=[];align=center;fontSize=12;image=img/lib/azure2/general/Files.svg;" vertex="1" parent="6DrEUlmGnA6X9Aar4sWL-4">
          <mxGeometry x="182" y="75" width="41.14" height="45" as="geometry" />
        </mxCell>
        <mxCell id="6DrEUlmGnA6X9Aar4sWL-14" value="Web Files" style="text;html=1;align=center;verticalAlign=middle;whiteSpace=wrap;rounded=0;" vertex="1" parent="6DrEUlmGnA6X9Aar4sWL-4">
          <mxGeometry x="175" y="120" width="60" height="30" as="geometry" />
        </mxCell>
        <mxCell id="6DrEUlmGnA6X9Aar4sWL-5" value="" style="sketch=0;pointerEvents=1;shadow=0;dashed=0;html=1;strokeColor=none;labelPosition=center;verticalLabelPosition=bottom;verticalAlign=top;align=center;fillColor=#505050;shape=mxgraph.mscae.intune.policy" vertex="1" parent="6DrEUlmGnA6X9Aar4sWL-4">
          <mxGeometry x="127" y="160" width="50" height="50" as="geometry" />
        </mxCell>
        <mxCell id="6DrEUlmGnA6X9Aar4sWL-10" value="S3 Policy" style="text;html=1;align=center;verticalAlign=middle;whiteSpace=wrap;rounded=0;" vertex="1" parent="6DrEUlmGnA6X9Aar4sWL-4">
          <mxGeometry x="122" y="210" width="60" height="30" as="geometry" />
        </mxCell>
        <mxCell id="6DrEUlmGnA6X9Aar4sWL-2" value="" style="sketch=0;points=[[0,0,0],[0.25,0,0],[0.5,0,0],[0.75,0,0],[1,0,0],[0,1,0],[0.25,1,0],[0.5,1,0],[0.75,1,0],[1,1,0],[0,0.25,0],[0,0.5,0],[0,0.75,0],[1,0.25,0],[1,0.5,0],[1,0.75,0]];outlineConnect=0;fontColor=#232F3E;fillColor=#8C4FFF;strokeColor=#ffffff;dashed=0;verticalLabelPosition=bottom;verticalAlign=top;align=center;html=1;fontSize=12;fontStyle=0;aspect=fixed;shape=mxgraph.aws4.resourceIcon;resIcon=mxgraph.aws4.route_53;" vertex="1" parent="6DrEUlmGnA6X9Aar4sWL-1">
          <mxGeometry x="20" y="131" width="93" height="93" as="geometry" />
        </mxCell>
        <mxCell id="6DrEUlmGnA6X9Aar4sWL-12" style="edgeStyle=orthogonalEdgeStyle;rounded=0;orthogonalLoop=1;jettySize=auto;html=1;entryX=0;entryY=0.5;entryDx=0;entryDy=0;entryPerimeter=0;" edge="1" parent="6DrEUlmGnA6X9Aar4sWL-1" source="6DrEUlmGnA6X9Aar4sWL-2" target="6DrEUlmGnA6X9Aar4sWL-3">
          <mxGeometry relative="1" as="geometry" />
        </mxCell>
        <mxCell id="6DrEUlmGnA6X9Aar4sWL-27" value="Route53" style="text;html=1;align=center;verticalAlign=middle;whiteSpace=wrap;rounded=0;" vertex="1" parent="6DrEUlmGnA6X9Aar4sWL-1">
          <mxGeometry x="36.5" y="224" width="60" height="30" as="geometry" />
        </mxCell>
        <mxCell id="6DrEUlmGnA6X9Aar4sWL-7" value="Hosting static website on an Amazon Bucket" style="text;strokeColor=none;fillColor=none;html=1;fontSize=24;fontStyle=1;verticalAlign=middle;align=center;" vertex="1" parent="1">
          <mxGeometry x="34" y="130" width="760" height="40" as="geometry" />
        </mxCell>
        <mxCell id="6DrEUlmGnA6X9Aar4sWL-23" value="" style="edgeStyle=orthogonalEdgeStyle;rounded=0;orthogonalLoop=1;jettySize=auto;html=1;" edge="1" parent="1" source="6DrEUlmGnA6X9Aar4sWL-16" target="6DrEUlmGnA6X9Aar4sWL-2">
          <mxGeometry relative="1" as="geometry" />
        </mxCell>
        <mxCell id="6DrEUlmGnA6X9Aar4sWL-16" value="" style="outlineConnect=0;dashed=0;verticalLabelPosition=bottom;verticalAlign=top;align=center;html=1;shape=mxgraph.aws3.internet_3;fillColor=#D2D3D3;gradientColor=none;" vertex="1" parent="1">
          <mxGeometry x="224" y="313" width="99.5" height="80" as="geometry" />
        </mxCell>
        <mxCell id="6DrEUlmGnA6X9Aar4sWL-22" value="" style="edgeStyle=orthogonalEdgeStyle;rounded=0;orthogonalLoop=1;jettySize=auto;html=1;" edge="1" parent="1" source="6DrEUlmGnA6X9Aar4sWL-17" target="6DrEUlmGnA6X9Aar4sWL-16">
          <mxGeometry relative="1" as="geometry" />
        </mxCell>
        <mxCell id="6DrEUlmGnA6X9Aar4sWL-17" value="" style="image;aspect=fixed;html=1;points=[];align=center;fontSize=12;image=img/lib/azure2/general/Browser.svg;" vertex="1" parent="1">
          <mxGeometry x="124" y="327" width="65" height="52" as="geometry" />
        </mxCell>
        <mxCell id="6DrEUlmGnA6X9Aar4sWL-21" value="" style="edgeStyle=orthogonalEdgeStyle;rounded=0;orthogonalLoop=1;jettySize=auto;html=1;" edge="1" parent="1" source="6DrEUlmGnA6X9Aar4sWL-18" target="6DrEUlmGnA6X9Aar4sWL-17">
          <mxGeometry relative="1" as="geometry" />
        </mxCell>
        <mxCell id="6DrEUlmGnA6X9Aar4sWL-18" value="" style="points=[[0.35,0,0],[0.98,0.51,0],[1,0.71,0],[0.67,1,0],[0,0.795,0],[0,0.65,0]];verticalLabelPosition=bottom;sketch=0;html=1;verticalAlign=top;aspect=fixed;align=center;pointerEvents=1;shape=mxgraph.cisco19.user;fillColor=#005073;strokeColor=none;" vertex="1" parent="1">
          <mxGeometry x="34" y="328" width="50" height="50" as="geometry" />
        </mxCell>
        <mxCell id="6DrEUlmGnA6X9Aar4sWL-19" value="" style="html=1;verticalLabelPosition=bottom;align=center;labelBackgroundColor=#ffffff;verticalAlign=top;strokeWidth=2;strokeColor=#0080F0;shadow=0;dashed=0;shape=mxgraph.ios7.icons.smartphone;" vertex="1" parent="1">
          <mxGeometry x="66" y="320" width="18" height="30" as="geometry" />
        </mxCell>
        <mxCell id="6DrEUlmGnA6X9Aar4sWL-24" value="User" style="text;html=1;align=center;verticalAlign=middle;whiteSpace=wrap;rounded=0;" vertex="1" parent="1">
          <mxGeometry x="34" y="400" width="60" height="30" as="geometry" />
        </mxCell>
        <mxCell id="6DrEUlmGnA6X9Aar4sWL-25" value="www.example.com" style="text;html=1;align=center;verticalAlign=middle;whiteSpace=wrap;rounded=0;" vertex="1" parent="1">
          <mxGeometry x="118.25" y="400" width="76.5" height="30" as="geometry" />
        </mxCell>
        <mxCell id="6DrEUlmGnA6X9Aar4sWL-26" value="Internet" style="text;html=1;align=center;verticalAlign=middle;whiteSpace=wrap;rounded=0;" vertex="1" parent="1">
          <mxGeometry x="243.75" y="400" width="60" height="30" as="geometry" />
        </mxCell>
      </root>
    </mxGraphModel>
  </diagram>
</mxfile>
